<svg fill="none" height="32" viewBox="0 0 32 32" width="32" xmlns="http://www.w3.org/2000/svg" xmlns:xlink="http://www.w3.org/1999/xlink"><filter id="a" color-interpolation-filters="sRGB" filterUnits="userSpaceOnUse" height="28.3172" width="19.2144" x="6.69281" y="1.54136"><feFlood flood-opacity="0" result="BackgroundImageFix"/><feBlend in="SourceGraphic" in2="BackgroundImageFix" mode="normal" result="shape"/><feColorMatrix in="SourceAlpha" result="hardAlpha" type="matrix" values="0 0 0 0 0 0 0 0 0 0 0 0 0 0 0 0 0 0 127 0"/><feOffset dx=".6" dy="-.6"/><feGaussianBlur stdDeviation="1"/><feComposite in2="hardAlpha" k2="-1" k3="1" operator="arithmetic"/><feColorMatrix type="matrix" values="0 0 0 0 0.909804 0 0 0 0 0.494118 0 0 0 0 0.301961 0 0 0 1 0"/><feBlend in2="shape" mode="normal" result="effect1_innerShadow_20020_1735"/></filter><filter id="b" color-interpolation-filters="sRGB" filterUnits="userSpaceOnUse" height="8.34204" width="9.6904" x="7.63177" y="20.2379"><feFlood flood-opacity="0" result="BackgroundImageFix"/><feBlend in="SourceGraphic" in2="BackgroundImageFix" mode="normal" result="shape"/><feGaussianBlur result="effect1_foregroundBlur_20020_1735" stdDeviation=".75"/></filter><filter id="c" color-interpolation-filters="sRGB" filterUnits="userSpaceOnUse" height="16.6199" width="12.1929" x="14.1075" y="9.4552"><feFlood flood-opacity="0" result="BackgroundImageFix"/><feBlend in="SourceGraphic" in2="BackgroundImageFix" mode="normal" result="shape"/><feGaussianBlur result="effect1_foregroundBlur_20020_1735" stdDeviation="1"/></filter><filter id="d" color-interpolation-filters="sRGB" filterUnits="userSpaceOnUse" height="14.3809" width="10.646" x="9.17383" y="1.35876"><feFlood flood-opacity="0" result="BackgroundImageFix"/><feBlend in="SourceGraphic" in2="BackgroundImageFix" mode="normal" result="shape"/><feGaussianBlur result="effect1_foregroundBlur_20020_1735" stdDeviation=".75"/></filter><filter id="e" color-interpolation-filters="sRGB" filterUnits="userSpaceOnUse" height="15.1847" width="7.43146" x="15.8869" y="1.68958"><feFlood flood-opacity="0" result="BackgroundImageFix"/><feBlend in="SourceGraphic" in2="BackgroundImageFix" mode="normal" result="shape"/><feGaussianBlur result="effect1_foregroundBlur_20020_1735" stdDeviation=".75"/></filter><filter id="f" color-interpolation-filters="sRGB" filterUnits="userSpaceOnUse" height="13.5425" width="3" x="21.8847" y="5.37097"><feFlood flood-opacity="0" result="BackgroundImageFix"/><feBlend in="SourceGraphic" in2="BackgroundImageFix" mode="normal" result="shape"/><feGaussianBlur result="effect1_foregroundBlur_20020_1735" stdDeviation=".5"/></filter><radialGradient id="g" cx="0" cy="0" gradientTransform="matrix(0 .532945 -1.14361 0 9.26037 20.7719)" gradientUnits="userSpaceOnUse" r="1"><stop offset="0" stop-color="#be6e00"/><stop offset=".791666" stop-color="#be6e00" stop-opacity="0"/></radialGradient><radialGradient id="h" cx="0" cy="0" gradientTransform="matrix(2.09171736 2.73585274 -3.35360543 2.56402496 16.5061 22.3577)" gradientUnits="userSpaceOnUse" r="1"><stop offset=".416431" stop-color="#d08c3b"/><stop offset=".881649" stop-color="#d08c3b" stop-opacity="0"/></radialGradient><radialGradient id="i" cx="0" cy="0" gradientTransform="matrix(4.63301678 -3.63537449 3.45894057 4.40816476 16.6715 19.6353)" gradientUnits="userSpaceOnUse" r="1"><stop offset="0" stop-color="#e17c51"/><stop offset="1" stop-color="#e17c51" stop-opacity="0"/></radialGradient><radialGradient id="j" cx="0" cy="0" gradientTransform="matrix(-10.02832022 6.4086937 -13.17446104 -20.61538907 27.6323 12.84)" gradientUnits="userSpaceOnUse" r="1"><stop offset="0" stop-color="#ffe452"/><stop offset="1" stop-color="#ffe452" stop-opacity="0"/></radialGradient><linearGradient id="k" gradientUnits="userSpaceOnUse" x1="20.3846" x2="23.3969" y1="9.40971" y2="9.40971"><stop offset="0" stop-color="#db8e1e"/><stop offset="1" stop-color="#db8e1e" stop-opacity="0"/></linearGradient><linearGradient id="l"><stop offset="0" stop-color="#e37917"/><stop offset="1" stop-color="#e37917" stop-opacity="0"/></linearGradient><linearGradient id="m" gradientUnits="userSpaceOnUse" x1="20.8687" x2="21.828" xlink:href="#l" y1="9.78626" y2="9.53523"/><radialGradient id="n" cx="0" cy="0" gradientTransform="matrix(-.75309962 -3.10204168 2.28202168 -.55401888 21.819 12.2966)" gradientUnits="userSpaceOnUse" r="1"><stop offset="0" stop-color="#ffdd4b"/><stop offset="1" stop-color="#ffdd4b" stop-opacity="0"/></radialGradient><linearGradient id="o" gradientUnits="userSpaceOnUse" x1="25.8134" x2="23.9264" y1="10.3266" y2="10.3266"><stop offset="0" stop-color="#ffde3f"/><stop offset="1" stop-color="#ffde3f" stop-opacity="0"/></linearGradient><linearGradient id="p" gradientUnits="userSpaceOnUse" x1="25.4715" x2="24.7331" y1="10.9283" y2="10.9283"><stop offset="0" stop-color="#fac54c"/><stop offset="1" stop-color="#fac54c" stop-opacity="0"/></linearGradient><linearGradient id="q" gradientUnits="userSpaceOnUse" x1="15.6691" x2="18.5054" y1="9.62494" y2="8.71869"><stop offset="0" stop-color="#d58430"/><stop offset="1" stop-color="#d58430" stop-opacity="0"/></linearGradient><linearGradient id="r" gradientUnits="userSpaceOnUse" x1="16.3501" x2="17.2506" xlink:href="#l" y1="9.28412" y2="8.90377"/><linearGradient id="s"><stop offset="0" stop-color="#dea23e"/><stop offset="1" stop-color="#dea23e" stop-opacity="0"/></linearGradient><radialGradient id="t" cx="0" cy="0" gradientTransform="matrix(2.29514908 2.00825366 -3.88875091 4.4442907 14.6826 2.7035)" gradientUnits="userSpaceOnUse" r="1" xlink:href="#s"/><linearGradient id="u" gradientUnits="userSpaceOnUse" x1="21.4191" x2="19.4816" y1="8.31244" y2="9.06244"><stop offset="0" stop-color="#ffe54d"/><stop offset="1" stop-color="#ffe54d" stop-opacity="0"/></linearGradient><linearGradient id="v" gradientUnits="userSpaceOnUse" x1="10.9816" x2="14.3077" y1="10.4492" y2="8.52126"><stop offset="0" stop-color="#d58441"/><stop offset="1" stop-color="#efa230" stop-opacity="0"/></linearGradient><linearGradient id="w" gradientUnits="userSpaceOnUse" x1="16.3254" x2="14.7941" y1="7.49998" y2="8.59764"><stop offset="0" stop-color="#ffe946"/><stop offset="1" stop-color="#ffe946" stop-opacity="0"/></linearGradient><linearGradient id="x" gradientUnits="userSpaceOnUse" x1="19.1379" x2="17.2082" y1="12.1484" y2="11.5469"><stop offset=".611536" stop-color="#ffd747"/><stop offset="1" stop-color="#ffd747" stop-opacity="0"/></linearGradient><radialGradient id="y" cx="0" cy="0" gradientTransform="matrix(2.06204823 2.88686516 -3.7803524 2.70025393 9.35709 2.82906)" gradientUnits="userSpaceOnUse" r="1" xlink:href="#s"/><linearGradient id="z" gradientUnits="userSpaceOnUse" x1="10.1775" x2="17.0115" y1="22.488" y2="27.1426"><stop offset="0" stop-color="#ffd535"/><stop offset="1" stop-color="#ffd535" stop-opacity="0"/></linearGradient><radialGradient id="A" cx="0" cy="0" gradientTransform="matrix(-3.85707487 1.89883601 -9.14816943 -18.58252855 22.6477 15.8663)" gradientUnits="userSpaceOnUse" r="1"><stop offset="0" stop-color="#ffeb5c"/><stop offset="1" stop-color="#ffe94a" stop-opacity="0"/></radialGradient><linearGradient id="B"><stop offset="0" stop-color="#ffe746"/><stop offset="1" stop-color="#ffe746" stop-opacity="0"/></linearGradient><linearGradient id="C" gradientUnits="userSpaceOnUse" x1="14.0714" x2="20.118" xlink:href="#B" y1="6.53999" y2="15.3513"/><linearGradient id="D" gradientUnits="userSpaceOnUse" x1="20.2172" x2="26.2638" xlink:href="#B" y1="6.53998" y2="15.3513"/><linearGradient id="E" gradientUnits="userSpaceOnUse" x1="23.6683" x2="24.3254" y1="6.25639" y2="15.9981"><stop offset="0" stop-color="#ffe949"/><stop offset="1" stop-color="#ffe949" stop-opacity="0"/></linearGradient><g filter="url(#a)"><path d="m15.1564 5.10633c-.3429-1.24802.3908-2.53772 1.6388-2.88063s2.5378.39081 2.8807 1.63882l.9746 3.54723v-1.00975c0-1.28591 1.0425-2.32834 2.3284-2.32834s2.3283 1.04243 2.3283 2.32834v9.536c0 .0665-.0028.1323-.0082.1973v1.9334c0 6.2187-2.5391 8.9531-5.0391 10.5468-1.9997 1.2748-5.8581 1.8827-8.9048.2743-1.97367-.9799-3.55575-2.6421-4.42426-4.5114-.59341-1.2772-.03908-2.7937 1.23812-3.3871 1.27721-.5934 2.79364-.0391 3.38704 1.2381.6619 1.4247 2.1995 2.4846 3.6688 2.4846 2.1491 0 3.8914-1.7423 3.8914-3.8914 0-2.1492-1.7423-3.8914-3.8914-3.8914-1.6896 0-3.0317.9366-3.5929 2.2635-.5485 1.2971-2.04473 1.9039-3.34182 1.3554-1.2971-.5486-1.90391-2.0448-1.35534-3.3419 1.04277-2.4656 3.12256-4.2506 5.63036-4.9941l-3.67444-5.96992c-.73502-1.19423-.36277-2.7582.83146-3.49321 1.19418-.73504 2.75818-.36278 3.49318.83145l2.7501 4.46814z" fill="#ffc03a"/><path d="m15.1564 5.10633c-.3429-1.24802.3908-2.53772 1.6388-2.88063s2.5378.39081 2.8807 1.63882l.9746 3.54723v-1.00975c0-1.28591 1.0425-2.32834 2.3284-2.32834s2.3283 1.04243 2.3283 2.32834v9.536c0 .0665-.0028.1323-.0082.1973v1.9334c0 6.2187-2.5391 8.9531-5.0391 10.5468-1.9997 1.2748-5.8581 1.8827-8.9048.2743-1.97367-.9799-3.55575-2.6421-4.42426-4.5114-.59341-1.2772-.03908-2.7937 1.23812-3.3871 1.27721-.5934 2.79364-.0391 3.38704 1.2381.6619 1.4247 2.1995 2.4846 3.6688 2.4846 2.1491 0 3.8914-1.7423 3.8914-3.8914 0-2.1492-1.7423-3.8914-3.8914-3.8914-1.6896 0-3.0317.9366-3.5929 2.2635-.5485 1.2971-2.04473 1.9039-3.34182 1.3554-1.2971-.5486-1.90391-2.0448-1.35534-3.3419 1.04277-2.4656 3.12256-4.2506 5.63036-4.9941l-3.67444-5.96992c-.73502-1.19423-.36277-2.7582.83146-3.49321 1.19418-.73504 2.75818-.36278 3.49318.83145l2.7501 4.46814z" fill="url(#g)"/><path d="m15.1564 5.10633c-.3429-1.24802.3908-2.53772 1.6388-2.88063s2.5378.39081 2.8807 1.63882l.9746 3.54723v-1.00975c0-1.28591 1.0425-2.32834 2.3284-2.32834s2.3283 1.04243 2.3283 2.32834v9.536c0 .0665-.0028.1323-.0082.1973v1.9334c0 6.2187-2.5391 8.9531-5.0391 10.5468-1.9997 1.2748-5.8581 1.8827-8.9048.2743-1.97367-.9799-3.55575-2.6421-4.42426-4.5114-.59341-1.2772-.03908-2.7937 1.23812-3.3871 1.27721-.5934 2.79364-.0391 3.38704 1.2381.6619 1.4247 2.1995 2.4846 3.6688 2.4846 2.1491 0 3.8914-1.7423 3.8914-3.8914 0-2.1492-1.7423-3.8914-3.8914-3.8914-1.6896 0-3.0317.9366-3.5929 2.2635-.5485 1.2971-2.04473 1.9039-3.34182 1.3554-1.2971-.5486-1.90391-2.0448-1.35534-3.3419 1.04277-2.4656 3.12256-4.2506 5.63036-4.9941l-3.67444-5.96992c-.73502-1.19423-.36277-2.7582.83146-3.49321 1.19418-.73504 2.75818-.36278 3.49318.83145l2.7501 4.46814z" fill="url(#h)"/><path d="m15.1564 5.10633c-.3429-1.24802.3908-2.53772 1.6388-2.88063s2.5378.39081 2.8807 1.63882l.9746 3.54723v-1.00975c0-1.28591 1.0425-2.32834 2.3284-2.32834s2.3283 1.04243 2.3283 2.32834v9.536c0 .0665-.0028.1323-.0082.1973v1.9334c0 6.2187-2.5391 8.9531-5.0391 10.5468-1.9997 1.2748-5.8581 1.8827-8.9048.2743-1.97367-.9799-3.55575-2.6421-4.42426-4.5114-.59341-1.2772-.03908-2.7937 1.23812-3.3871 1.27721-.5934 2.79364-.0391 3.38704 1.2381.6619 1.4247 2.1995 2.4846 3.6688 2.4846 2.1491 0 3.8914-1.7423 3.8914-3.8914 0-2.1492-1.7423-3.8914-3.8914-3.8914-1.6896 0-3.0317.9366-3.5929 2.2635-.5485 1.2971-2.04473 1.9039-3.34182 1.3554-1.2971-.5486-1.90391-2.0448-1.35534-3.3419 1.04277-2.4656 3.12256-4.2506 5.63036-4.9941l-3.67444-5.96992c-.73502-1.19423-.36277-2.7582.83146-3.49321 1.19418-.73504 2.75818-.36278 3.49318.83145l2.7501 4.46814z" fill="url(#i)"/><path d="m15.1564 5.10633c-.3429-1.24802.3908-2.53772 1.6388-2.88063s2.5378.39081 2.8807 1.63882l.9746 3.54723v-1.00975c0-1.28591 1.0425-2.32834 2.3284-2.32834s2.3283 1.04243 2.3283 2.32834v9.536c0 .0665-.0028.1323-.0082.1973v1.9334c0 6.2187-2.5391 8.9531-5.0391 10.5468-1.9997 1.2748-5.8581 1.8827-8.9048.2743-1.97367-.9799-3.55575-2.6421-4.42426-4.5114-.59341-1.2772-.03908-2.7937 1.23812-3.3871 1.27721-.5934 2.79364-.0391 3.38704 1.2381.6619 1.4247 2.1995 2.4846 3.6688 2.4846 2.1491 0 3.8914-1.7423 3.8914-3.8914 0-2.1492-1.7423-3.8914-3.8914-3.8914-1.6896 0-3.0317.9366-3.5929 2.2635-.5485 1.2971-2.04473 1.9039-3.34182 1.3554-1.2971-.5486-1.90391-2.0448-1.35534-3.3419 1.04277-2.4656 3.12256-4.2506 5.63036-4.9941l-3.67444-5.96992c-.73502-1.19423-.36277-2.7582.83146-3.49321 1.19418-.73504 2.75818-.36278 3.49318.83145l2.7501 4.46814z" fill="url(#j)"/></g><path d="m21.9365 12.0391h3.3707v-5.69013c0-1.28591-1.0424-2.32834-2.3283-2.32834-1.286 0-2.3284 1.04243-2.3284 2.32834v1.00975z" fill="url(#k)"/><path d="m21.9365 12.0391h3.3707v-5.69013c0-1.28591-1.0424-2.32834-2.3283-2.32834-1.286 0-2.3284 1.04243-2.3284 2.32834v1.00975z" fill="url(#m)"/><path d="m21.9365 12.0391h3.3707v-5.69013c0-1.28591-1.0424-2.32834-2.3283-2.32834-1.286 0-2.3284 1.04243-2.3284 2.32834v1.00975z" fill="url(#n)"/><path d="m21.9365 12.0391h3.3707v-5.69013c0-1.28591-1.0424-2.32834-2.3283-2.32834-1.286 0-2.3284 1.04243-2.3284 2.32834v1.00975z" fill="url(#o)"/><path d="m21.9365 12.0391h3.3707v-5.69013c0-1.28591-1.0424-2.32834-2.3283-2.32834-1.286 0-2.3284 1.04243-2.3284 2.32834v1.00975z" fill="url(#p)"/><path d="m15.1564 5.10633c-.3429-1.24802.3908-2.53772 1.6388-2.88063s2.5377.39081 2.8806 1.63882l2.2121 8.17448h-3.6444c-.0597-.269-.1138-.4719-.2664-.7198l-2.0117-3.26864z" fill="url(#q)"/><path d="m15.1564 5.10633c-.3429-1.24802.3908-2.53772 1.6388-2.88063s2.5377.39081 2.8806 1.63882l2.2121 8.17448h-3.6444c-.0597-.269-.1138-.4719-.2664-.7198l-2.0117-3.26864z" fill="url(#r)"/><path d="m15.1564 5.10633c-.3429-1.24802.3908-2.53772 1.6388-2.88063s2.5377.39081 2.8806 1.63882l2.2121 8.17448h-3.6444c-.0597-.269-.1138-.4719-.2664-.7198l-2.0117-3.26864z" fill="url(#t)"/><path d="m15.1564 5.10633c-.3429-1.24802.3908-2.53772 1.6388-2.88063s2.5377.39081 2.8806 1.63882l2.2121 8.17448h-3.6444c-.0597-.269-.1138-.4719-.2664-.7198l-2.0117-3.26864z" fill="url(#u)"/><path d="m9.72211 2.74088c-1.19423.73501-1.56648 2.29898-.83146 3.49321l3.67435 5.97001c.8457-.2507 2.1376-.1611 3.0573-.1611h3.5156c-1.125-.5743-1.3288-1.0476-1.5352-1.3829l-4.3874-7.08777c-.735-1.19423-2.299-1.56648-3.49319-.83145z" fill="url(#v)"/><path d="m9.72211 2.74088c-1.19423.73501-1.56648 2.29898-.83146 3.49321l3.67435 5.97001c.8457-.2507 2.1376-.1611 3.0573-.1611h3.5156c-1.125-.5743-1.3288-1.0476-1.5352-1.3829l-4.3874-7.08777c-.735-1.19423-2.299-1.56648-3.49319-.83145z" fill="url(#w)"/><path d="m9.72211 2.74088c-1.19423.73501-1.56648 2.29898-.83146 3.49321l3.67435 5.97001c.8457-.2507 2.1376-.1611 3.0573-.1611h3.5156c-1.125-.5743-1.3288-1.0476-1.5352-1.3829l-4.3874-7.08777c-.735-1.19423-2.299-1.56648-3.49319-.83145z" fill="url(#x)"/><path d="m9.72211 2.74088c-1.19423.73501-1.56648 2.29898-.83146 3.49321l3.67435 5.97001c.8457-.2507 2.1376-.1611 3.0573-.1611h3.5156c-1.125-.5743-1.3288-1.0476-1.5352-1.3829l-4.3874-7.08777c-.735-1.19423-2.299-1.56648-3.49319-.83145z" fill="url(#y)"/><g filter="url(#b)"><path d="m9.88193 22.488c.79427 1.4777 2.60437 3.5464 5.19017 3.8419" stroke="url(#z)" stroke-linecap="round" stroke-width="1.5"/></g><g filter="url(#c)"><path d="m17.1077 12.4554c2.5469.5397 7.3041 3.419 5.9572 10.6195" stroke="url(#A)" stroke-linecap="round" stroke-width="2"/></g><g filter="url(#d)"><path d="m11.4239 3.60889 6.1459 9.88061" stroke="url(#C)" stroke-linecap="round" stroke-width="1.5"/></g><g filter="url(#e)"><path d="m18.1371 3.93982 2.9311 10.68428" stroke="url(#D)" stroke-linecap="round" stroke-width="1.5"/></g><g filter="url(#f)"><path d="m23.3847 6.87097v10.54253" stroke="url(#E)" stroke-linecap="round"/></g></svg>